<?xml version="1.0" standalone="no"?>
<!DOCTYPE svg PUBLIC "-//W3C//DTD SVG 20010904//EN"
 "http://www.w3.org/TR/2001/REC-SVG-20010904/DTD/svg10.dtd">
<svg version="1.0" xmlns="http://www.w3.org/2000/svg"
 width="72.000000pt" height="72.000000pt" viewBox="0 0 72.000000 72.000000"
 preserveAspectRatio="xMidYMid meet">
<metadata>
Created by potrace 1.11, written by Peter Selinger 2001-2013
</metadata>
<g transform="translate(0.000000,72.000000) scale(0.100000,-0.100000)"
fill="#000000" stroke="none">
<path d="M71 646 c-71 -72 -72 -73 -69 -119 l3 -47 69 66 68 66 31 -31 32 -31
-48 0 c-30 0 -47 -4 -48 -12 -1 -7 -2 -40 -3 -73 l-1 -60 -53 -3 -53 -3 3 -37
3 -37 50 0 49 0 1 -118 c1 -72 -3 -121 -10 -125 -5 -4 -28 -7 -50 -7 -39 0
-40 -1 -43 -37 l-3 -38 106 0 106 0 37 35 c40 38 42 35 -33 39 l-30 1 -2 70
c-2 52 0 66 8 53 12 -22 62 -24 79 -4 16 21 9 56 -15 72 -17 11 -25 11 -48 -1
l-27 -14 0 37 0 37 52 0 53 0 0 35 0 35 -52 3 -53 3 0 35 c0 25 4 34 18 35 21
1 63 5 79 7 7 1 10 21 9 53 -2 48 -4 53 -72 119 l-70 69 -73 -73z"/>
<path d="M458 708 c-3 -7 -30 -12 -74 -12 l-69 -1 -3 -37 c-3 -36 -2 -38 27
-38 29 0 31 -3 31 -34 0 -30 -3 -35 -27 -38 -24 -3 -28 -8 -31 -39 l-3 -36
182 1 c195 1 197 2 185 51 -5 18 -13 25 -31 25 -22 0 -25 4 -25 34 0 30 3 35
28 38 24 3 27 7 27 38 l0 35 -69 0 c-45 1 -71 5 -74 13 -5 16 -69 16 -74 0z
m88 -125 l2 -33 -54 0 c-52 0 -54 1 -52 28 2 41 6 43 56 40 45 -3 47 -4 48
-35z"/>
<path d="M310 315 c0 -133 0 -135 23 -136 53 -3 52 -2 52 -54 l0 -50 -37 0
c-30 0 -45 -8 -75 -38 l-38 -37 113 0 c83 0 112 3 112 13 1 6 2 46 3 87 l2 75
30 0 30 0 0 -88 -1 -87 61 0 c56 0 64 3 93 33 18 18 32 35 32 38 0 2 -24 5
-52 4 l-53 0 0 50 c0 43 3 50 20 51 57 3 53 -6 52 137 l-2 132 -72 3 -73 3 0
-39 c0 -38 1 -39 33 -38 l32 1 3 -63 3 -62 -68 0 c-64 0 -70 -2 -105 -36 l-38
-35 -1 63 c-2 123 5 144 43 132 16 -5 88 49 88 67 0 5 -47 9 -105 9 l-105 0 0
-135z"/>
<path d="M460 353 c-48 -49 -55 -61 -56 -99 -1 -24 1 -44 5 -44 4 0 30 24 59
53 51 51 53 56 50 100 l-3 45 -55 -55z"/>
<path d="M32 257 c-29 -30 -32 -39 -32 -95 l0 -62 37 37 c35 33 38 40 39 94 0
33 -2 59 -6 59 -3 0 -20 -15 -38 -33z"/>
</g>
</svg>
